<?xml version="1.0" encoding="UTF-8"?>
<svg version="1.1" viewBox="0 0 1432 1620" width="1280" height="1280" xmlns="http://www.w3.org/2000/svg">
<path transform="translate(0)" d="m0 0h1432v1620h-1432z" fill="#332F2F"/>
<path transform="translate(760,529)" d="m0 0 6 1 3 3v24l-7 31-13 54v8l11-24 9-17 6-11 13-19 9-13 10-12 8-10 8-9 5-3 6 1 4 4v25l-12 39-15 43-9 25-5 26-2 11v6l1 4 12-3 6-5 9-11 8-9 9-11 13-13-1 6-8 12-13 17-13 19-6 7-5 5-13-1-8-3-6-9-6-10-2-10v-47l7-26 12-34-1-2-7 14-12 21-23 47-10 22-9 25-2 3h-9l-2-2-2-9-2-4v-21l2-37 2-13 3-12v-5l-11 29-13 34-8 19-9 20-8 14-10 15-4 5-9 6h-26l-16-16-5-12-2-9v-40l2-10 13-26 7-7 11-7 13-3h6l17 8 3 5 2 8-1 5-3-1-7-8-3-2h-16l-4 4-9 21-3 27v9l5 25 2 7 22-2 15-25 6-12 16-40 14-37 7-19 12-21 16-29 7-10 7-9z" fill="#FCDC6F"/>
<path transform="translate(691,400)" d="m0 0h46l19 1 36 8 16 5 24 11 20 11 18 14 11 9 14 12 10 12 9 12 13 18 9 15 8 15 12 22 8 24 7 25 1 6v62l-6 28-5 18-6 8h-3l1-6 3-11 2-10v-7l-6 21-5 9-2 2-6 18-6 10-9 14-10 15-5 5h-1l1-8 13-29 8-19 4-12 3-1 2 1v2l5 2-7-14 1-10 1-5v-75l-10-36-6-16-8-17-8-16-6-11-11-14-12-14-9-10-9-8-12-9-14-10-15-8-27-12-19-7-30-6-10-1h-53l-35 5-9 1 2-4 6-4 18-5 22-5 6-1h60l16 1 31 6 16 5 28 13 15 8 14 10 9 5-5-5-17-13-11-8-23-11-22-10-19-6-26-6-18-2-38-2-11-1v-3z" fill="#FDDD70"/>
<path transform="translate(365,943)" d="m0 0h40l8 16 12 27 13 29 7 15 13 28 11 25v2l4-4 30-60 11-23 12-25 10-21 6-9h38v13l-14 1-1 2v133l15 1v16h-46l-1-1v-13l1-2 17-1v-23l-2-71v-29l-3 3-17 35-11 23-11 22-11 23-12 23-7 10-5 2-10-1-10-19-27-60-14-32-7-15-4-8-1 8-2 83-1 26 15 1v16h-47v-14l1-2 15-1v-136h-16v-12z" fill="#FDDD70"/>
<path transform="translate(498,539)" d="m0 0h2l4 7 1 6-3 16-3 11h-3v-2l-3 2-5 21h2l1 88 8 32 6 18 18 36 9 12 14 17 9 10 17 14 14 10 10 7 29 15 14 6 32 9 22 4 12 1h38l19-3 25-6 36-12 14-3 12-1-6 7-10 8-11 5-32 7-28 6h-70l-25-5-19-4-29-12-17-8-21-12-10-7-14-12-10-9-7-7-8-10-12-16-9-13-13-24-9-19-4-12 1 9 5 15 26 52 11 14 12 14 7 8 8 7 15 11 13 9 22 12 19 9 18 6 30 8 23 3 15 1 31-1 24-2-1 3-10 4-15 2-13 1h-34l-36-6-16-3-15-6-27-12-13-7-17-12-17-13-10-9-8-7-10-12-13-19-7-10-17-33-5-13-5-22-3-13-2-15v-51l5-31 4-21 6-19 8-20z" fill="#FCDC6F"/>
<path transform="translate(754,940)" d="m0 0h13l22 2 10 3 20 11 4 1 1-7 1-1h12l1 11v25l-1 2-8-1-9-3-11-14-5-4-13-4-9-1h-37l-9 2-20 9-6 4-6 8-7 14-3 12v31l4 13 8 17 8 8 10 7 13 5 12 2h23l17-4 13-5 8-7 6-8 4-10 3-14 1-10h-61l-1-1v-10l1-2h74l1 39v45l-2 1h-11l-2-7v-10l-5 2-12 9-19 7-8 2h-36l-21-6-14-7-9-7-8-9-9-15-6-21-1-6v-17l2-20 4-10 12-23 12-10 13-9 13-5 15-3z" fill="#FDDD70"/>
<path transform="translate(935,943)" d="m0 0h146l1 1v26l-1 1h-14l-1-1v-14l-52 1-1 135 15 1 3 9v7h-49l2-14 2-2 13-1 1-136-52 1-1 14h-12l-1-5z" fill="#FDDD70"/>
<path transform="translate(780,432)" d="m0 0 10 1 21 7 29 12 23 14 14 9 10 9 11 11 7 8 8 9 11 14 9 12 13 33 7 28 3 20v48l-3 20-7 27h-2l2-13 4-21v-36l-8-46-7-20-10-24-8-14-18-27-7-9-19-19-8-7-15-12-13-8-15-8-23-9-18-6z" fill="#332F2F"/>
<path transform="translate(613,445)" d="m0 0 5 1-1 5-28 15-16 12-16 13-7 5-4 1-1-5 6-8 11-9 15-12 22-12z" fill="#FDDD70"/>
<path transform="translate(884,818)" d="m0 0 5 5 1 5-9 7-13 10-7 4-3-1-1-6 5-8 13-10z" fill="#FDDD70"/>
<path transform="translate(508,521)" d="m0 0 13 1 2 1-1 5-7 14h-4l-5-13v-6z" fill="#FDDD70"/>
</svg>
