<?xml version="1.0" encoding="UTF-8"?>
<svg version="1.1" viewBox="0 0 1021 816" width="1280" height="1280" xmlns="http://www.w3.org/2000/svg">
<path transform="translate(0)" d="m0 0h1021v816h-1021z" fill="#332E2E"/>
<path transform="translate(497,296)" d="m0 0h20l16 4 16 8 11 9 10 12 8 16 4 15v22l-4 15-7 14-2 5-7 6-6 5-5 5-5 2-9 3-11 3-7 1h-14l-15-3-15-6-11-7-11-10-9-13-5-12-3-12v-23h-1l1-9 2-5h2l1-4h2l2-6 6-8 14-14 14-8 12-4z" fill="#332E2E"/>
<path transform="translate(524,328)" d="m0 0 2 1v8l-7 29v2l8-16 8-12 8-10 3-1 2 1v8l-5 16-7 20-2 12 1 2 4-1 9-11 5-5-2 4-10 14-3 3-6-1-4-6-1-4v-14l4-13 2-7-6 10-11 23-3 9h-3l-2-6 1-19 2-11-7 18-6 15-7 12-4 3h-8l-5-5-2-6v-15l5-10 5-4 6-1 6 3 1 5-4-4h-6l-4 8-1 11 2 11 1 1 7-1 6-10 5-12 8-21 9-17 4-5z" fill="#FDDB77"/>
<path transform="translate(397,460)" d="m0 0h13l16 35 5 11 8-16 14-29 1-1h12v4h-5v44h5v5h-15v-5h6l-1-41-19 39-4 7h-5l-18-40-2-4-1 39h5v5h-15v-5h5v-44h-5z" fill="#FFDD78"/>
<path transform="translate(523,459)" d="m0 0 11 1 8 4 1 1 1-3h4v12l-5-1-5-6-6-2h-15l-10 5-4 7-1 4v11l4 9 6 5 7 2h9l9-3 4-4 2-5 1-7h-20v-4h24v27h-4l-1-6-5 4-9 3h-11l-9-3-6-4-5-8-2-9 1-11 5-10 8-6 6-2z" fill="#FFDD78"/>
<path transform="translate(501,287)" d="m0 0h21l16 4 14 7 9 7 6 5 10 13 9 17 4 13 1 6v17l-4 16-2 2 2-9 2-13v-7l-2 16-4 12-1-3 3-11 1-6v-16l-3-15-5-12-8-10-9-9-13-8-13-5-6-1 15 6 13 9 10 10 9 14 5 13 3 16v10l-3 16-1-4 1-5v-22l-4-15-8-16-11-13-12-9-15-7-14-3h-20l-13 2 2-2 12-3 7-1h17l15 3 16 7 8 5-10-8-15-7-11-3-6-1-18-1z" fill="#FBD976"/>
<path transform="translate(440,331)" d="m0 0 2 4-1 4-1 5-2-1-2 8h1v27l4 15 7 14 9 11 13 10 14 7 14 4 7 1h14l15-3 10-4 7-1-4 4-6 2-19 4h-20l-15-3-12-5-10-6-11-9-10-13-7-14-3-9 4 14 8 16 9 11 12 9 14 7 15 4 13 1 16-1-4 2-9 1h-10l-17-3-16-7-10-7-9-8-8-11-7-14-3-12-1-7v-14l4-20z" fill="#FFDD78"/>
<path transform="translate(579,460)" d="m0 0h47v9h-5v-5h-17v44h5l1 5h-16l1-5h5v-44h-17v5h-4z" fill="#FFDD78"/>
<path transform="translate(511,348)" d="m0 0 1 2-9 24-7 16-7 10-2 1h-8l-5-5-2-6v-15l5-10 5-4 6-1 6 3 1 5-4-4h-6l-4 8-1 11 2 11 1 1 7-1 6-10 5-12 8-21z" fill="#FFDD78"/>
<path transform="translate(527,297)" d="m0 0 10 3 12 6 10 8 8 8 9 14 5 13 3 16v10l-3 16-1-4 1-5v-22l-4-15-8-16-11-13-12-9-15-7-4-1z" fill="#FFDD78"/>
<path transform="translate(586,351)" d="m0 0 4 2 1 6v17l-4 16-2 2 2-9 2-13v-7l-2 16-4 12-1-3 3-11 1-6z" fill="#FFDD78"/>
<path transform="translate(440,331)" d="m0 0 2 4-1 4-1 5-2-1-2 6-1 14h-1l-1-11 4-14z" fill="#D8BB69"/>
<path transform="translate(549,432)" d="m0 0 2 1-8 5-7 1-14 3-3-1 7-2 16-5z" fill="#F4D474"/>
<path transform="translate(579,391)" d="m0 0 3 2-1 5-9 14-2 1 2-5 5-11z" fill="#E4C56E"/>
<path transform="translate(505,293)" d="m0 0h4v2h7v1l-19 1-13 2 2-2 12-3z" fill="#FFDD78"/>
<path transform="translate(509,293)" d="m0 0h13l9 2-4 1h-2l2 2-10-1-1-1-7-1z" fill="#D8BB6A"/>
<path transform="translate(476,301)" d="m0 0 3 1-11 6-10 8-3 2v-3l10-8z" fill="#FFDD78"/>
<path transform="translate(563,420)" d="m0 0 2 3-9 7-2-1 1-3z" fill="#F3D273"/>
<path transform="translate(443,325)" d="m0 0 5 1-2 5-2 2-2-6z" fill="#C0A761"/>
</svg>
