<?xml version="1.0" encoding="UTF-8"?>
<svg version="1.1" viewBox="0 0 2020 1668" width="1280" height="1280" xmlns="http://www.w3.org/2000/svg">
<path transform="translate(0)" d="m0 0h2020v1668h-2020z" fill="#332F30"/>
<path transform="translate(1049,393)" d="m0 0 8 1 7 3 1 2v39l-7 34-11 47-13 52-1 12 2-2 13-28 14-28 12-21 14-21 13-19 10-14 12-14 11-14 11-12 6-7 8-5h8l6 4 3 4v38l-4 16-12 40-20 59-9 25-10 28-5 19-8 42v18l2 1 17-5 8-6 7-7 9-11 9-10 9-11 9-10 7-8 12-12 3-1 1 3-5 10-12 17-24 32-11 16-12 16-9 10-1 1-16-1-13-3-6-4-7-8-12-21-3-11-1-11v-23l1-49 9-35 13-38 8-23h-2l-2 6-24 44-14 27-13 26-11 23-12 26-10 25-11 29-3 5h-15l-3-3-5-18-2-4v-35l3-53 3-23 4-18v-7l-10 28-11 29-18 46-14 33-11 24-13 22-8 12-11 16-7 7-8 5-3 1h-41l-8-7-16-16-6-10-6-17-1-5-1-30v-33l2-15 5-14 11-22 6-11 7-8 8-7 14-9 12-3 5-1h15l25 11 6 8 2 6 1 12-2 4-4-1-12-13-5-2h-25l-5 5-6 12-8 20-3 19-3 31 1 15 8 39 2 5h14l20-2 3-3 17-29 8-14 11-25 19-48 13-34 15-40 8-20 10-19 14-24 14-26 11-18 12-16 8-10z" fill="#FDDD6F"/>
<path transform="translate(938,186)" d="m0 0h81l25 2 42 8 28 7 19 7 28 13 19 10 18 11 18 13 11 9 10 8 13 11 14 12 10 10 11 14 12 15 13 18 11 16 15 26 17 32 7 12 8 19 12 36 10 37 1 6v102l-9 41-8 28-4 8-7 8-4 1 1-13 6-24v-13l-4 18-4 12-5 11-6 16-8 17-16 26-22 34-9 11-4 2v-7l5-15 16-36 22-55 4 1 8 6 2 1-8-16-2-6 1-17 1-10v-117l-9-34-8-27-6-16-9-20-16-34-7-14-7-11-11-14-12-14v-2h-2l-11-14-12-13-7-7-11-9-19-14-21-14-18-10-15-8-28-13-26-10-14-4-31-6-19-3-10-1h-86l-39 5-21 3h-10l1-4 7-6 12-5 44-11 20-4h105l27 3 40 7 22 6 26 11 24 11 23 13 17 12 10 7 8 4-5-5-10-8-34-25-23-11-33-15-24-10-29-9-31-7-22-3-44-3-43-3-3-1-1-4z" fill="#FDDD6F"/>
<path transform="translate(702,1056)" d="m0 0 60 1v21l-1 1-16 1-6 1v215l18 1 5 1v26h-76v-25l1-1 13-1h15l-1-57-2-70-1-70h-2l-1 4-8 16-9 19-8 16-25 51-12 25-14 29-19 38-9 14-9 10-5 3-6 1-10-1-4-5-8-14-11-23-7-15-9-21-7-15-18-40-13-29-20-44-3-9-1 1-2 37-2 89-2 47-1 13h24l1 2-1 25h-75v-24l1-2 8-1h17v-219h-26v-20l1-1h65l10 19 13 28 13 30 30 66 15 32 15 33 7 16h4l14-27 38-76 11-23 14-29 13-28 13-27 9-13z" fill="#FDDD6F"/>
<path transform="translate(630,408)" d="m0 0 4 2 5 8 2 8-1 14-4 20-4 12-4 1-4-1-3 7-5 21-2 6 3 1 1 40 1 62 1 39 6 27 9 34 9 24 17 35 10 19 10 13 13 16 7 9 12 14 14 14 11 9 13 10 15 11 18 13 16 9 29 15 16 7 36 12 30 8 29 5 18 2h66l30-5 44-11 49-16 20-5 25-3 2 1-9 10-7 7-10 7-13 6-17 5-54 12-24 5-11 1h-105l-27-4-36-8-27-9-29-12-29-14-24-13-16-10-13-10-15-14-12-11-8-7-11-11-9-11-11-14-14-18-10-15-10-17-12-23-8-16-5-11-5-13-2-5-2-7-1 2 9 29 8 18 36 72 12 16 12 14 9 11 12 13 4 4v2l4 2 10 9 14 10 17 12 17 11 22 12 23 12 16 7 25 8 35 10 23 5 29 4 14 1h41l26-1 22-2h11l-2 4-13 6-13 3-30 3h-59l-33-5-42-8-15-4-21-8-30-14-17-8-18-10-16-11-19-14-14-11-13-11-16-15-11-12-13-17-12-17-10-15-9-15-8-16-13-25-8-21-6-22-8-36-3-21v-89l9-56 5-26 7-23 12-30 8-19z" fill="#FDDD6F"/>
<path transform="translate(1031,1053)" d="m0 0h40l28 3 17 6 31 16 4 1 1-11 1-1h21l1 2 1 19v39l-4 1-17-3-9-3-10-14-9-10-10-6-16-5-8-1h-68l-16 4-20 8-11 6-9 7-7 10-11 23-5 17v53l6 21 11 23 5 6v2h2v2h2v2l4 2 9 7 14 8 18 6 16 3h37l21-5 18-6 12-6 10-9 9-14 6-14 4-17 3-21h-99v-20l1-1h119l1 21 1 38v76l-3 1h-18l-2-5-1-5-1-17-15 9-9 6-12 6-24 9-9 2h-61l-32-10-21-10-13-10-11-11-11-16-8-14-7-23-4-17v-37l3-26 6-15 10-20 10-17 13-12 13-10 13-9 20-8 23-5z" fill="#FDDD6F"/>
<path transform="translate(1331,1057)" d="m0 0h236v44l-1 1h-24v-24l-15 1-68 2-2 215 23 2 4 8 3 12v5l-1 1h-79l2-17 3-9 11-1h10l2-219-58 2h-25l-1 22h-20l-1-1v-32z" fill="#FDDD6F"/>
<path transform="translate(1083,237)" d="m0 0 11 1 24 7 30 11 29 12 11 6 32 20 15 10 11 9 15 14 17 17v2h2l9 11 12 14 8 10 13 17 8 13 12 30 7 19 9 36 4 21 2 12 1 17v42l-1 34-5 29-10 40-4-1 9-48 1-7v-57l-6-36-6-34-8-24-14-35-9-20-9-17-28-42-10-13-12-13-25-25-22-18-13-10-23-14-12-7-26-11-46-16-3-2z" fill="#332F30"/>
<path transform="translate(608,694)" d="m0 0 3 2 2 8 4 11 4 9 7 15 8 16 14 26 12 18 16 21 13 16 9 11 14 14 8 7 10 9 13 12 17 12 23 13 27 14 20 9 30 12 23 7 37 8 22 3h105l16-2 19-4h8l-2 2-9 2-3 4h-2l-1 3-5 1-7-1-1 4-2-1-25 1-12 1-54 2-18-1-11-1-24-2-23-5-35-10-25-8-18-8-31-16-17-10-22-15-19-14-10-8-6-5v-2l-4-2-7-8-13-15-11-13-10-13-8-12-11-23-26-52-9-25-4-15z" fill="#332F30"/>
<path transform="translate(829,938)" d="m0 0h6l27 11 23 7 37 8 22 3h105l16-2 19-4h8l-2 2-9 2-3 4h-2l-1 3-5 1-7-1-1 4-2-1-25 1-12 1-54 2-18-1-11-1-24-2-23-5-35-10-25-8-10-4-1-3 6-1 3 3 9 2 10 3-7-3v-5h-5l-4-1h-2v-2z" fill="#312F35"/>
<path transform="translate(813,259)" d="m0 0h7l2 2v5l-8 6-23 12-20 12-16 12-13 10-13 11-16 11-6 1-1-1v-7l8-11 7-7 11-9 15-12 10-7 17-10 21-11 14-6z" fill="#FDDD6F"/>
<path transform="translate(473,1112)" d="m0 0 4 4 5 12 14 30 13 29 20 45 18 40 5 11 12 25 4 7v5l-5-2v-2h-2l-5-6-2-6h-2v-5h-2l-2-4v-4h-2l-4-12-2-1-6-15-4-9-4-7-1-4-3-7-3-5-1-4v-2h-2l-5-12-2-3v-3l-2-1 1-3h-2l-4-10-6-14v-6h-2l-6-16-3-6-3 1v-2h-2l-1 7-4-4-1-8-2 2v-15z" fill="#312F35"/>
<path transform="translate(1061,205)" d="m0 0h7l22 6 24 8 30 13 28 13 19 9 13 10 21 16 11 8 1 3 3 1-2 1-11-6-18-13-13-8-16-9-33-15-17-7-22-6-22-4-1-2-16-2-2-1-16-2-3-5-5-1 4-2 4-1v-2z" fill="#312F35"/>
<path transform="translate(414,1078)" d="m0 0h27v219h-25l2-2 5-2h7v-2l4-3 2-7-2-7v-177l3-6h-3l-2-4-4-4v-2h-15z" fill="#312F34"/>
<path transform="translate(1098,489)" d="m0 0h2l-1 6-7 20-12 35-6 23h-2l-3-5-2 2-2 5-2 2-3-1v2h-2l2 5-7 2v2h-2l-1 4h-2l-3 11 1 2h-2v3l-3 2-1 6-2 3v2h-2l-2 5-8 16-3 10-2 1-6 18-5 7h-1v-6l10-25 13-29 10-21 26-52 12-22 10-18z" fill="#312F34"/>
<path transform="translate(709,1100)" d="m0 0h2v39l-2 4v-7l-1-5h-2v-3l-5 1-5 5-1 5-3 2-2 8h-2v8l-3 4-2 1 1 5-8 16-6 11-2 5-5 10-4 7-2 4-3 5-4 8-1 3h-2l-1 5-5 11-2 7h-2l-3 9-6 11-8 16-5 9-2 3h-2v2h-2l-2 6-7 8h-5l2-4 9-11 10-18 26-52 11-23 14-29 19-39 14-29 7-14z" fill="#312F35"/>
<path transform="translate(1151,216)" d="m0 0h5l4 1 1 3 2-4 4 3h-2l1 5 2-1 2-3 9 4 8 3v2l5 2 12 9v2l5 1 7 4 7 6v2l5 1 9 6v2h3l5 6 12 9 1 3 4 2 10 8 2 1v2h2l4 7 5 4 7 12 1 4-5 1v-2l-3-1-3-5-1-7-3-1v-2l-2 1v3l-10-9-13-12-11-9-12-10-14-11-18-13-22-13-23-12z" fill="#312F35"/>
<path transform="translate(698,1055)" d="m0 0h4l-2 4-9 14-16 33-13 28-19 39-12 25-29 58h-3l-1-7 5-14 8-16h2l1-5 8-16 10-19 1-3h2l1-5 8-16 7-11 2-4 1-3 4-3 6-12 2-1 3-17 4-10 7-14 4-7 6-11 5-5z" fill="#312F35"/>
<path transform="translate(1528,1048)" d="m0 0 10 1h8l9 1 2 2 9 2h2l1 5-2-1v-2h-229v-2l9-1 8 2v-2h9v-2l5-1 5 1 5-1h12l4 1v-2l9 1 6-1h4l12 1h31l2-1h59z" fill="#312F35"/>
<path transform="translate(1248,857)" d="m0 0 4 1 7 10 1 4-10 9-12 9-15 11-11 6-3-1-3-7 1-6 7-10 9-8 16-12z" fill="#FDDD6F"/>
<path transform="translate(1485,1079)" d="m0 0h56v15l-1 2-5 1-5-5-5-2h-22l-1-1h-28l-7 3-1 2v7h-3v2h-3v8h2l1 4-1 1v15l-1 13v30l-1 25h-1v-119z" fill="#312F35"/>
<path transform="translate(983,538)" d="m0 0h1v8l-5 23h-2l-1 17-3 3h-3v2l2 1-1 6h-2v-5l-2 5-5 7-2 8-2 2-3 12-3 4-2 5-3 10v2h-2l-2 11h-2l-3 9-4 8-6 11-1 2h-2l-3 9-5 9-7 13-4 5-3 7-3 2-2 5 1 2h-2v2l-4 2-1 4-1 3-6 5h-3v2l-5 1-2 3-3-1v-2l10-7 7-8 8-12 11-17 10-17 15-33 15-36 13-34 18-48 3-9z" fill="#312F34"/>
<path transform="translate(1406,1078)" d="m0 0h29l1 11h-2v60l-2 1v-20h-1l-1-12-2-11 1-4-2-1v-10h-2l-2-5-13-1-3 1-2-2-13-1-10 1v2l-8 1-12 1-5 5v3l-5 1v-18z" fill="#312F35"/>
<path transform="translate(1130,419)" d="m0 0 4 1-1 5-13 15-8 10-13 18-8 12-17 26-9 16-6 11-3-1v-3l3-3 1-5v-3l2-1 1-5h2v-5l2-3h2v-4l4-2 4-10 4-7 2-4h2l2-5 5-8 5-9 5-5 5-6 2-5h3l2-4 2-2 4-5 3-1 3-5h2v-2z" fill="#312F35"/>
<path transform="translate(443,1048)" d="m0 0h11l16 2 1 4h7l6 2 5 5 3 5 3 8 2 4v6l5 2 3 7 1 5 2 1 1 4h-3l5 4 1 3-4 1 3 1 3 9 2 2 2 7 3 5v2h2l2 6 1 4 2 2v7h3l2 9 3 4-1 4-2-1-16-36-13-29-10-23-13-26v-2h-61v-3l4-1h5v-2z" fill="#312F35"/>
<path transform="translate(1044,391)" d="m0 0 5 1-2 4-5 5-9 11-12 17-15 27-14 25-13 23-3 6-3-1 1-9 6-12h2l1-4 8-13h2l1-6 6-12h2l1-4 8-14 5-11 10-15 3-1 2-5 7-6 1-2h2v-2z" fill="#312F35"/>
<path transform="translate(790,262)" d="m0 0 5 1 2 2h-2v2l-23 12-18 11-17 13-14 12-8 7-5 6-5 3-2-3 4-8 3-4 5-3h2l1-4h2v-2h2v-2l5-4 8-5 1-2h2v-2l4-2v-2l6-4 8-4 4-4 7-4h6l2-4h7l1-2h3l1-2h3z" fill="#312F35"/>
<path transform="translate(1202,611)" d="m0 0 2 2v5l-2 8h-2l-1 3-1 4-5 7-2 4-4 4-2 5h-2l-1 3h-3l-1 6-5 5-3 5-2 2-1-1-3 6-2 1-4 7-2 1-1 2 1-5 1-4-1 1-1 3-2 2 1 5-4 5h-2v5l-4 2-3 1-2 4-2 1-7 6-3 2-7 1-2-2 8-1 8-8 14-19 14-20 16-21 13-18 8-13z" fill="#312F34"/>
<path transform="translate(921,1245)" d="m0 0 2 3v2h2l7 14 8 12 8 10 9 9 13 9 19 9 3 1v2h-8l-4 2-12-5-17-10-5-5-1-3-3-1-8-13v-2h-2v-3l-2-2v-2l-5-5-5-20z" fill="#312F35"/>
<path transform="translate(1173,453)" d="m0 0h2v8l-3 9-2 11h-2l-2 12-2 7-4 11-2 8h-2v6l-1 4h-2l-2 10-3 9-2 7h-2l-1 9-4 9-3 9-1 5-2 1-2 9-2 2-2 9-1 3h-2l-1 6-1 5-3 6-2 6h-1v-8l6-20 9-25 14-40 15-44 12-40z" fill="#312F34"/>
<path transform="translate(1083,237)" d="m0 0 11 1 24 7 11 4v2l4 2 8 2 10 4v2l10 2 1 2 7 2 2 3 5 1 4 2 4 4-4 2-5-2-4-2-11-5-9-3-25-10-40-14-3-2z" fill="#312F34"/>
<path transform="translate(646,380)" d="m0 0 24 2-1 8-11 23-2 2-4-1-3-4-6-16v-11z" fill="#FDDD6F"/>
<path transform="translate(1178,627)" d="m0 0h3l-2 5-11 12-9 11-12 14-12 13-8 6-17 5-2-1v-13l1-3 2 1 1 2-1 2h4v3h6l-1 3 4-1 2-4 9-2-1-5 5-7 4-7h2v-2h2l2-5 6-8h2l2-4 6-7 7-5h3v-2z" fill="#312F35"/>
<path transform="translate(1361,577)" d="m0 0 2 1v20l-2 43-6 26-6 24-4-1 9-48 1-7h2v-54z" fill="#312F35"/>
<path transform="translate(1049,506)" d="m0 0h2l-1 9-1 4 2 1v6l-3 1v8l3 3h4l-1 5-17 35-3 6-2-1 1-12z" fill="#312F34"/>
<path transform="translate(608,694)" d="m0 0 3 2 2 8 4 11 4 9 7 15 8 16 2 10h2l1 6h2l2 5 3 4 1 5 2 1 2 4v4h2l2 3-1 5-5-4-31-62-9-25-4-15z" fill="#312F34"/>
<path transform="translate(835,557)" d="m0 0 1 2 6-2-1 3-17 12-8 8-6 10-11 23-2 4h-2l-2 6-2 2-2-6 2-7h2l1-4 15-30 5-6 7-4 7-2 2-5h2l1-2z" fill="#312F35"/>
<path transform="translate(808,274)" d="m0 0 4 1 2 2-1 2 2 1-6 4-7 1-3 3-3-3-3 2 1 4-7 6-8 4h-3v2l-5 2-2-2-8 6 2 1-4 3v-2l-3 1-1-3 6-7 15-10 21-12z" fill="#312F34"/>
<path transform="translate(1195,915)" d="m0 0 1 2-2 9-7 9-9 7h-2v2l-9 5h-4l-1 2-3-1v2l-5 2-3-1 2-5h-4v-2l13-5 11-6 13-12 6-7z" fill="#312F35"/>
<path transform="translate(627,408)" d="m0 0 2 1-5 16-13 32-11 33-2-1-1-13 2-4h2l1-9 3-8 3-4 1-7 6-12 2-1 2-9 2-2v-6z" fill="#312F35"/>
<path transform="translate(1111,219)" d="m0 0 5 1 26 11 30 14 19 9 13 10 21 16 11 8 1 3 3 1-2 1-11-6-18-13-6-4v-3-2l-5-2-12-9-13-5-2-2-7-3-9-3-1-3-7-1-7-3-5-2-6-3-9-4v-2l-8-2z" fill="#332F30"/>
<path transform="translate(954,1081)" d="m0 0h7l-2 4-14 12-6 9-17 33-1 3h-2v2l-3-1v-6h2l1-6 5-10 3-5 4-4 3-6 2-7 5-5 3-5 5-5z" fill="#312F35"/>
<path transform="translate(1094,260)" d="m0 0 12 2 6 3 4 4 14 7 11 4 13 8-3 1-13-6-6 1-10-5-26-11-6-5-3-2z" fill="#312F35"/>
<path transform="translate(1366,675)" d="m0 0h1v14l-6 24-3 10-2 7h-2l-2 6-3 1-2 6-5 5-2 1 1-5 7-16 12-30 4-16z" fill="#312F34"/>
<path transform="translate(1066,639)" d="m0 0 2 1 1 24 3 15h2l9 16 5 8 3 5v2l2 1-3 1-8-7-5-6-2-5v-3h-2v-3h-2l-2-7-2-4v-7h-2l-1-12v-12z" fill="#312F35"/>
<path transform="translate(730,914)" d="m0 0h5l9 9v2l5-1v2l4 1 4 5 5 1 5 5 8 3 7 4 1 3-1 3-5-1-14-8-14-9-3-2v-2l-5-2-7-5-1-4-3-1z" fill="#312F36"/>
<path transform="translate(415,1325)" d="m0 0h69l-2 5-9 1-3-1-5 1h-9l-9 1-7-1-17-2-8-3z" fill="#312F36"/>
<path transform="translate(1083,1324)" d="m0 0 3 1-5 2v4h-41l-10-1-2-1v-2l-8-1v-1z" fill="#312F35"/>
<path transform="translate(1568,1061)" d="m0 0 1 2h2l3 7 1 5v17l1 2-4 6-1 4-3 1h-5l-2 2h-6l-7-2-7-1v-1l27-1z" fill="#312F35"/>
<path transform="translate(1149,1292)" d="m0 0h2l1 2v17l-6-2-4-2-9 6-5 2v-4l-1-5 11-7z" fill="#312F35"/>
<path transform="translate(1413,1325)" d="m0 0h73v1h-6l-2 4-15 1-5-1-4 1-5-1h-6l-4-1-4 1-6-1-4 1-7-3-5-1z" fill="#312F35"/>
<path transform="translate(756,872)" d="m0 0 4 1 4 2 2 4h2v2l5 1 4 1v2l4 2v3l7 1 4 3 3 2-1 3h5l1 3 2 1-1 1-7-1-16-10-13-10-10-7z" fill="#312F34"/>
<path transform="translate(1258,873)" d="m0 0 2 1-1 3v3l-3 5-9 2v2h-2v4h-2v2l-5 4-9 2-5 2-6 4h-4v-2l12-7 26-20z" fill="#312F34"/>
<path transform="translate(1116,1093)" d="m0 0 7 1 11 10 9 12-1 4-11-5-1-3-7-6v-2l-4-2-5-4v-3z" fill="#312F35"/>
<path transform="translate(475,1174)" d="m0 0 2 2 1 9v11l-1 13-2 11h-2l1 7v16l-2 4h-2v-43l2 1v10h2l-2-5 2-20v-14z" fill="#312F36"/>
<path transform="translate(710,833)" d="m0 0 6 4 1 3 4-1 4 4v3l4 1v2h3l1 4h3l2 4 7 5 3 2 2 4 4 4-7-2-16-13-12-11-5-5-3-5z" fill="#312F34"/>
<path transform="translate(1106,196)" d="m0 0 14 4 1 4 4-1-1-3 6 1 3 3v2l8 2 4 4 4 1v4l-5-1-16-7-21-7-5-2 1-3z" fill="#312F34"/>
<path transform="translate(1141,1251)" d="m0 0 1 3-8 13-9 10-6 4-6 1 1-5 3-1 2-4h2l2-4 7-8 5-5z" fill="#312F35"/>
<path transform="translate(469,1268)" d="m0 0 3 4 1 3v3l3-2 3 9-1 4v2l4 5h-13l-2-1 1-7 1 4 2-3h2l-1-2h-3l-1-12z" fill="#312F35"/>
<path transform="translate(881,551)" d="m0 0 5 1 1-1h5l1 3 4 1 8 8v2h2v2h2l1 9-2 2v-3h-2l-4-9-8-5-7-3-11-4 4-2z" fill="#312F35"/>
<path transform="translate(577,1263)" d="m0 0 4 3 1-1h8l1 5 1 6-5 7-4-2-6-14z" fill="#312F35"/>
<path transform="translate(732,1325)" d="m0 0h26l-4 2v3l-7 1-4-2-9 1v-2l-3 1-5-1v2h-2v-3h-6v2l-6-1-21-1v-1z" fill="#312F35"/>
<path transform="translate(1393,642)" d="m0 0 2 1 1 6h-3l-1 8 1 3-1 5-4 8h-3v-9l3-14h2l1-6h2z" fill="#312F35"/>
<path transform="translate(1337,751)" d="m0 0h2l-3 9-5 9h-2l-1 5-6 9 1 2h-2l-2 8-2-3-2 3h-2l1-5 11-17z" fill="#312F34"/>
<path transform="translate(1020,1086)" d="m0 0h69l11 1v1l-14 1-17-1h-40l-6 2-3-1-6 2-3-1 1-2z" fill="#312F35"/>
<path transform="translate(1260,381)" d="m0 0 5 5 4 5v2h2l6 8 3 5-1 2h-4l-5-7-1-3-4-4-5-7-1-4z" fill="#312F36"/>
<path transform="translate(949,1219)" d="m0 0 4 3v6l3 5 2 6 3 5 1 9-5-5-7-16-2-6v-6z" fill="#312F34"/>
<path transform="translate(1177,1286)" d="m0 0 1 2 4 2v8l1 5-1 3v5l-5 3z" fill="#312F36"/>
<path transform="translate(859,579)" d="m0 0h8l-3 1-1 2-4 2-5 11-3 7-4 9h-2l1-7 7-17z" fill="#312F34"/>
<path transform="translate(967,1115)" d="m0 0 4 2-1 4-3 1-1-2-5 13 1 2-2 2h-2l-2 1-1 3h-2l1-6 9-17z" fill="#312F34"/>
<path transform="translate(1062,1205)" d="m0 0 20 1 1 4-6 3h-7l-1-2-6-2v-2l-3-1z" fill="#312F36"/>
<path transform="translate(1328,1061)" d="m0 0h1v30l-2-1-3-6-1-5 1-4 2-9z" fill="#312F36"/>
<path transform="translate(1143,1205)" d="m0 0h9v15l-3 9-1-4v-8l-2-2z" fill="#312F35"/>
<path transform="translate(981,1101)" d="m0 0 9 1 3 3-7 1-7 4-2-1-1 2v-3l-1 4-3 1-1-2-3 3 1-4 9-7z" fill="#312F35"/>
<path transform="translate(888,581)" d="m0 0 5 3 6 9-1 3-10-6v-2l-5-1-1-5z" fill="#312F36"/>
<path transform="translate(710,1183)" d="m0 0h1l1 6v17l-1 31-2 4-1-3 1-19v-27z" fill="#312F36"/>
<path transform="translate(1334,701)" d="m0 0 4 1 7 13v3l-5-2-6-5v-2l-3-1 2-1-1-2z" fill="#312F34"/>
<path transform="translate(1317,398)" d="m0 0h3l8 12 3 7 2 6-1 4-6-10-6-11z" fill="#312F36"/>
<path transform="translate(746,1080)" d="m0 0 4 2v2l3 1-3 1-1 3-3 2-5-1-2-3v-6z" fill="#312F36"/>
<path transform="translate(538,1175)" d="m0 0 2 2 2 6 2 2 2 6 2 2 1 7 3 3-1 4h-2l-12-26v-5z" fill="#312F34"/>
<path transform="translate(1150,1067)" d="m0 0h2v12l-2 1-9-4 2-2v-3l-2-2z" fill="#322F32"/>
<path transform="translate(903,680)" d="m0 0 3 1-1 5-6 10-5 1 1-5 2-2 3-7 3-1z" fill="#312F34"/>
<path transform="translate(983,1265)" d="m0 0 7 5v3l-5-2v2l2 1v2h-8l-3-3v-2l2-1v-3h3l1 1z" fill="#312F35"/>
<path transform="translate(1350,663)" d="m0 0h1v9h2l-2 11-2 8-4-1z" fill="#332F30"/>
<path transform="translate(888,226)" d="m0 0 1 2h-2v2l-15 4-9 1v-3l11-3z" fill="#312F34"/>
<path transform="translate(641,721)" d="m0 0h2l2 6-1 3 3 1 2 4 1 6 2 2v4l-3-1-8-18z" fill="#312F34"/>
<path transform="translate(945,993)" d="m0 0h52v1l-45 1-2 1 1 2-7-1 2-2z" fill="#312F36"/>
<path transform="translate(1047,247)" d="m0 0 9 1 9 2 3 1h-2v4l4-1 2-2v2l2 1h-2v3l-9-2-3-2 1-4-4 1-10-3z" fill="#312F36"/>
<path transform="translate(1190,239)" d="m0 0 6 1 5 3 7 6 3 3 7 4 3 3-1 2-19-14-11-7z" fill="#343030"/>
<path transform="translate(1089,192)" d="m0 0 9 1 1 3 2 1v2l-11-1-5-2 1-3z" fill="#312F34"/>
<path transform="translate(1309,799)" d="m0 0h5l-2 5-1 2h-2v2l-9 5 1-4 3-5 4-3z" fill="#312F35"/>
<path transform="translate(953,182)" d="m0 0h19l14 2v1h-32z" fill="#312F36"/>
<path transform="translate(888,709)" d="m0 0 1 4-6 10h-8l2-3h2v-2l5-2 2-5z" fill="#322F32"/>
<path transform="translate(589,537)" d="m0 0 2 2-2 14-2 2-2-3v-11h2z" fill="#312F36"/>
<path transform="translate(619,723)" d="m0 0 3 3 6 13 8 16 1 4-4-3-5-12-8-15v-3l-2-1z" fill="#343030"/>
<path transform="translate(1148,401)" d="m0 0 2 4-4 5-6-3 2 4-4 1v-4l1-2h2v-2z" fill="#312F34"/>
<path transform="translate(1059,467)" d="m0 0 2 4-2 10h-2l-1 8-2 8h-1v-8l5-21z" fill="#312F34"/>
<path transform="translate(622,639)" d="m0 0 3 3v6 2l1 5-4 1-1-3v-12z" fill="#312F35"/>
<path transform="translate(593,515)" d="m0 0h1l-1 12-2 10h-1l-1-7 2-2h-2l-1-3 2-7z" fill="#312F35"/>
<path transform="translate(1424,1288)" d="m0 0h4l2 5v3l-5 1h-9v-1l10-2-6-2z" fill="#312F36"/>
<path transform="translate(1225,867)" d="m0 0 1 2-1 2h2l-2 4-4 3h-3v-5l4-5z" fill="#312F35"/>
<path transform="translate(1105,1316)" d="m0 0h5l-3 2-6 2-1 2-10 3-2-1v-2z" fill="#322F33"/>
<path transform="translate(981,1101)" d="m0 0 3 1-2 3-1-1-1 3-5 2v3l-3 1-1-2-3 3 1-4 9-7z" fill="#322F33"/>
<path transform="translate(912,240)" d="m0 0h10l1 2-15 2-3 1-6-1v-1h6v-2z" fill="#312F34"/>
<path transform="translate(1149,1124)" d="m0 0 10 1 7 2v1h-7v2l-5-1z" fill="#312F34"/>
<path transform="translate(413,1302)" d="m0 0h1v15l-2 3-2-5 1-8z" fill="#312F36"/>
<path transform="translate(1470,1290)" d="m0 0 3 1 4-1 3 2-4 3 2 2h-6l-2-2-1-4z" fill="#312F36"/>
<path transform="translate(640,388)" d="m0 0h1l3 10 2 7-2 1-3-2-1-4v-2z" fill="#312F36"/>
<path transform="translate(1319,1090)" d="m0 0 2 4v7h4l1-5 1-2h2l-1 4-2 5-6-1-2-2z" fill="#312F36"/>
<path transform="translate(1121,1055)" d="m0 0 4 1 7 4 1 5-5-1-3-4-4-2z" fill="#312F36"/>
<path transform="translate(565,1236)" d="m0 0 2 1 2 7h2l1 2v6h-2l-5-11z" fill="#312F34"/>
<path transform="translate(829,938)" d="m0 0h6l9 4-1 2h-5l-4-1h-2v-2z" fill="#322F33"/>
<path transform="translate(1188,311)" d="m0 0 9 4 2 4h-7l-4-6z" fill="#312F36"/>
<path transform="translate(710,1241)" d="m0 0 1 4-1 16-2 3-1-3 2-5-4-1 1-3 3 1-1-8z" fill="#312F36"/>
<path transform="translate(1101,1050)" d="m0 0h8l-2 5-4 2-3-1v-5z" fill="#312F36"/>
<path transform="translate(1300,780)" d="m0 0h2l-1 5-6 14h-2l2-10 2-1z" fill="#322F33"/>
<path transform="translate(844,613)" d="m0 0h4l-1 7-2-1-3 7h-1v-10h2z" fill="#312F35"/>
<path transform="translate(1198,609)" d="m0 0 2 1-10 10-3-1 4-2 1-5 2-2z" fill="#312F34"/>
<path transform="translate(1061,188)" d="m0 0 1 2 9-1h8v2l-5 1h-2-11z" fill="#312F35"/>
<path transform="translate(983,538)" d="m0 0h1v8l-2 8-3-3 2-10z" fill="#322F32"/>
<path transform="translate(1233,349)" d="m0 0 10 10v2h-5l-5-9z" fill="#312F36"/>
<path transform="translate(596,491)" d="m0 0h3v8h-2l-1 4-2-4 1-7z" fill="#312F35"/>
<path transform="translate(1164,1175)" d="m0 0 9 1 2 5-3-1v-2h-7v2l-5-2v-2z" fill="#312F35"/>
<path transform="translate(1053,981)" d="m0 0 4 1-2 2 2 1-4 3-2-3-7 3v-3z" fill="#312F34"/>
<path transform="translate(744,1292)" d="m0 0 5 2h7l1 2h-16l-2-1 1-2h3z" fill="#312F36"/>
<path transform="translate(682,1302)" d="m0 0h2v14l-3-2v-11z" fill="#312F36"/>
<path transform="translate(1458,1291)" d="m0 0 2 1h3l6 2v2h-9l-2-1z" fill="#312F36"/>
<path transform="translate(742,1253)" d="m0 0h1l1 7-2 3v8l-2 1v-17z" fill="#312F36"/>
<path transform="translate(915,989)" d="m0 0h12l7 1v2h-9l-10-2z" fill="#322F33"/>
<path transform="translate(1128,681)" d="m0 0m-2 1 5 1h3l-7 5-4 1 2-6z" fill="#322F33"/>
<path transform="translate(696,283)" d="m0 0h3l1 5-1 1h-7v-3l3-1z" fill="#312F36"/>
<path transform="translate(1151,687)" d="m0 0 2 1 1 2h-2l-1 3h-2l-1 3-1-2-3 2 2-4z" fill="#322F33"/>
<path transform="translate(809,749)" d="m0 0 4 2 4 3 2 2v2l-5-1v-2l-4-2z" fill="#312F36"/>
<path transform="translate(1067,574)" d="m0 0 5 1v6l-3 1-3-4z" fill="#312F35"/>
<path transform="translate(1084,961)" d="m0 0h8l-2 2-9 2-6-1v-1z" fill="#322F33"/>
<path transform="translate(668,1115)" d="m0 0 1 4-5 11-2-3 2-6h2z" fill="#322F33"/>
<path transform="translate(1133,1065)" d="m0 0h3l1 7h-4l-2-5h2z" fill="#312F35"/>
<path transform="translate(893,985)" d="m0 0h11l6 2v1h-8l-9-2z" fill="#322F33"/>
<path transform="translate(1299,814)" d="m0 0 1 3-1 2h-2l-1 4h-4l1-4z" fill="#312F35"/>
<path transform="translate(1033,571)" d="m0 0h1l1 5h2l-2 7h-3z" fill="#343030"/>
<path transform="translate(1171,299)" d="m0 0 4 2 5 4v2h-5l-4-6z" fill="#312F36"/>
<path transform="translate(1039,201)" d="m0 0h10l6 1v2h-8l-8-2z" fill="#312F34"/>
<path transform="translate(882,716)" d="m0 0 2 3-3 4h-6l2-3h2v-2z" fill="#312F36"/>
<path transform="translate(1330,626)" d="m0 0h2l3 8-1 4h-2l-1-8-2-1z" fill="#312F36"/>
<path transform="translate(1106,196)" d="m0 0 7 2-4 2-6 1-1-2 1-2z" fill="#312F35"/>
<path transform="translate(964,1258)" d="m0 0 3 1 2 4 3 2v2h2l-1 2-3-1v-2h-2l-4-5z" fill="#322F33"/>
<path transform="translate(1384,677)" d="m0 0 3 1v5l-5 2 1-7z" fill="#312F36"/>
<path transform="translate(1297,329)" d="m0 0 6 5-4 2-4-3z" fill="#312F35"/>
<path transform="translate(817,269)" d="m0 0h3l1 5-1 1h-6v-4z" fill="#312F34"/>
<path transform="translate(1016,991)" d="m0 0h8l1 3h-9z" fill="#312F36"/>
<path transform="translate(1231,285)" d="m0 0 6 4v2l3 1-2 1-8-4z" fill="#343030"/>
<path transform="translate(708,1289)" d="m0 0 5 1 1 6-6-3-1-3z" fill="#312F36"/>
<path transform="translate(1366,675)" d="m0 0h1v14l-3-3 1-10z" fill="#343030"/>
<path transform="translate(624,473)" d="m0 0 4 2-1 4-5 2 1-7z" fill="#312F36"/>
<path transform="translate(1108,376)" d="m0 0h4l-2 5-4 1 1-5z" fill="#312F36"/>
</svg>
