<svg width="319.2" height="72.402" viewBox="0 0 319.2 72.402" xmlns="http://www.w3.org/2000/svg"><g id="svgGroup" stroke-linecap="round" fill-rule="evenodd" font-size="9pt" stroke="#25bcd4" stroke-width="0.25mm" fill="#09dede9e" style="stroke:#25bcd4;stroke-width:0.25mm;fill:#09dede9e"><path d="M 10.5 71.2 L 0 71.2 L 1 63.2 L 1 1.2 L 15.5 1.2 L 35 54.5 L 36.5 60.7 L 37.3 60.7 L 38.8 54.5 L 58.3 1.2 L 72.8 1.2 L 72.8 63.2 L 73.8 71.2 L 63.3 71.2 L 64.3 63.2 L 64.3 9.5 L 63.1 9.5 L 60.1 20.8 L 41.4 70.2 L 32.4 70.2 L 13.7 20.8 L 10.7 9.5 L 9.5 9.5 L 9.5 63.2 L 10.5 71.2 Z" id="0" vector-effect="non-scaling-stroke"/><path d="M 131.5 48.5 L 92.6 48.5 L 92.6 46.7 L 101.6 41.7 L 123.7 41.7 Q 123.7 37.275 122.781 33.817 A 22.441 22.441 0 0 0 122.75 33.7 A 10.572 10.572 0 0 0 121.254 30.415 A 9.429 9.429 0 0 0 119.1 28.2 A 8.875 8.875 0 0 0 116.508 26.91 Q 115.299 26.522 113.825 26.346 A 22.208 22.208 0 0 0 111.2 26.2 Q 107.188 26.2 104.419 27.497 A 10.133 10.133 0 0 0 102.65 28.55 A 12.275 12.275 0 0 0 98.773 33.47 A 15.764 15.764 0 0 0 98.15 35.1 Q 96.8 39.3 96.8 44.9 Q 96.8 51.6 98.3 55.7 A 18.8 18.8 0 0 0 99.507 58.376 Q 100.698 60.519 102.3 61.8 Q 104.8 63.8 107.8 64.5 Q 110.8 65.2 113.8 65.2 A 39.219 39.219 0 0 0 117.543 65.031 Q 119.352 64.857 120.927 64.505 A 21.754 21.754 0 0 0 121.95 64.25 A 27.189 27.189 0 0 0 125.782 62.893 A 22.359 22.359 0 0 0 128.1 61.7 L 129.7 62.7 L 129.7 69.9 A 41.507 41.507 0 0 1 125.79 71.065 A 51.875 51.875 0 0 1 122.85 71.7 A 41.019 41.019 0 0 1 117.917 72.301 A 50.908 50.908 0 0 1 114.7 72.4 Q 109.9 72.4 105.15 71.25 Q 100.4 70.1 96.6 67.2 A 18.136 18.136 0 0 1 92.481 62.725 A 24.45 24.45 0 0 1 90.5 59.05 Q 88.712 54.969 88.314 49.106 A 51.797 51.797 0 0 1 88.2 45.6 A 49.201 49.201 0 0 1 88.55 39.539 Q 89.266 33.781 91.45 29.85 Q 94.7 24 100 21.5 Q 105.3 19 111.3 19 A 28.644 28.644 0 0 1 116.441 19.437 Q 120.053 20.096 122.85 21.75 Q 127.5 24.5 129.85 29.55 Q 132.2 34.6 132.2 41.6 A 35.185 35.185 0 0 1 132.137 43.755 A 27.842 27.842 0 0 1 132 45.3 A 43.068 43.068 0 0 1 131.711 47.347 A 36.365 36.365 0 0 1 131.5 48.5 Z" id="1" vector-effect="non-scaling-stroke"/><path d="M 201.8 68.2 L 201.8 37.4 L 193.3 37.4 L 193.3 68.2 L 201.8 68.2 L 201.8 60.5 L 199 58.5 A 27.026 27.026 0 0 1 196.522 60.439 A 21.67 21.67 0 0 1 190.3 63.45 Q 185.7 64.8 179.9 64.8 A 49.126 49.126 0 0 1 174.496 64.518 Q 164.172 63.374 158.8 57.6 Q 154.187 52.643 152.75 44.463 A 46.682 46.682 0 0 1 152.1 36.4 Q 152.1 30.065 153.297 25.266 A 25.259 25.259 0 0 1 155.45 19.5 A 24.796 24.796 0 0 1 156.214 18.164 A 19.77 19.77 0 0 1 164.75 10.4 Q 170.7 7.6 178.4 7.6 A 48.47 48.47 0 0 1 180.686 7.653 Q 185.802 7.894 189.5 9.25 Q 194 10.9 197.7 13.8 L 199.7 12.8 L 199.7 5 Q 195.2 2.5 190.2 1.25 A 40.212 40.212 0 0 0 184.831 0.308 A 54.467 54.467 0 0 0 178.9 0 A 51.377 51.377 0 0 0 173.079 0.322 A 41.331 41.331 0 0 0 160.7 3.65 Q 152.6 7.3 147.85 15.25 A 28.424 28.424 0 0 0 145.727 19.645 Q 144.314 23.321 143.661 27.773 A 56.776 56.776 0 0 0 143.1 36 A 61.065 61.065 0 0 0 143.159 38.718 Q 143.851 54.248 152.6 62.95 A 28.491 28.491 0 0 0 158.502 67.448 Q 163.294 70.209 169.487 71.431 A 55.41 55.41 0 0 0 180.2 72.4 A 77.298 77.298 0 0 0 180.617 72.399 Q 187.064 72.364 192.15 71.25 A 59.623 59.623 0 0 0 195.348 70.458 A 50.033 50.033 0 0 0 201.8 68.2 Z M 182.2 41.1 L 176.2 42.1 L 176.2 33.7 L 201.8 33.7 L 201.8 41.1 L 182.2 41.1 Z" id="2" vector-effect="non-scaling-stroke"/><path d="M 245 40.8 L 250.2 44.5 L 250.2 49.1 Q 247.6 47.7 244.65 47.15 Q 241.7 46.6 237.9 46.6 Q 231.257 46.6 227.631 48.446 A 10.595 10.595 0 0 0 227.25 48.65 Q 223.887 50.539 223.623 55.442 A 15.948 15.948 0 0 0 223.6 56.3 A 12.412 12.412 0 0 0 223.864 58.946 Q 224.222 60.586 225.066 61.803 A 6.765 6.765 0 0 0 226.3 63.15 A 8.059 8.059 0 0 0 228.728 64.499 Q 230.957 65.31 234.257 65.391 A 30.37 30.37 0 0 0 235 65.4 A 31.314 31.314 0 0 0 238.794 65.185 Q 240.709 64.951 242.298 64.462 A 13.651 13.651 0 0 0 244.85 63.4 A 19.578 19.578 0 0 0 247.864 61.386 A 14.534 14.534 0 0 0 250.5 58.6 L 252.5 63.1 L 242.9 71.2 Q 240.9 71.7 238.6 72.05 Q 236.3 72.4 233.9 72.4 Q 229.5 72.4 225.2 70.95 Q 220.9 69.5 218.05 65.95 Q 215.601 62.899 215.256 57.892 A 24.659 24.659 0 0 1 215.2 56.2 Q 215.2 52.197 216.452 49.307 A 11.916 11.916 0 0 1 217 48.2 Q 218.8 45 221.85 43.2 A 21.024 21.024 0 0 1 227.301 40.968 A 24.589 24.589 0 0 1 228.7 40.65 Q 232.5 39.9 236.5 39.9 A 50.83 50.83 0 0 1 239.089 39.963 A 40.389 40.389 0 0 1 240.95 40.1 Q 243 40.3 245 40.8 Z M 258.7 71.2 L 250.8 71.2 L 249.3 65.9 L 249.3 38.7 A 24.2 24.2 0 0 0 249.132 35.766 Q 248.952 34.295 248.579 33.043 A 12.734 12.734 0 0 0 248.2 31.95 A 7.347 7.347 0 0 0 245.615 28.701 A 10.477 10.477 0 0 0 243.9 27.7 A 12.512 12.512 0 0 0 241.597 26.909 Q 239.134 26.3 235.589 26.214 A 49.238 49.238 0 0 0 234.4 26.2 A 34.355 34.355 0 0 0 230.2 26.447 A 27.991 27.991 0 0 0 227.55 26.9 A 17.957 17.957 0 0 0 222.137 29.099 A 20.641 20.641 0 0 0 221.5 29.5 L 219.9 28.5 L 219.9 21.3 Q 224.3 19.9 228.15 19.45 A 68.725 68.725 0 0 1 232.307 19.086 A 53.949 53.949 0 0 1 235.3 19 Q 243.901 19 248.739 21.248 A 15.581 15.581 0 0 1 248.85 21.3 A 15.114 15.114 0 0 1 252.771 23.929 A 12.818 12.818 0 0 1 255.7 28.05 A 21.211 21.211 0 0 1 257.133 32.662 Q 257.7 35.541 257.7 39 L 257.7 63.2 L 258.7 71.2 Z" id="3" vector-effect="non-scaling-stroke"/><path d="M 298.4 71.2 L 287.9 71.2 L 288.9 63.2 L 288.9 4.8 L 297.4 4.8 L 297.4 63.2 L 298.4 71.2 Z M 273.1 9 L 267.1 10 L 267.1 1.2 L 319.2 1.2 L 319.2 10 L 313.2 9 L 273.1 9 Z" id="4" vector-effect="non-scaling-stroke"/></g></svg>